<mxfile host="app.diagrams.net" agent="Mozilla/5.0 (Windows NT 10.0; Win64; x64) AppleWebKit/537.36 (KHTML, like Gecko) Chrome/128.0.0.0 Safari/537.36 OPR/114.0.0.0 (Edition std-1)" version="24.9.2">
  <diagram name="PÃ¡gina-1" id="iijDfNbDPXpub3F5k3xi">
    <mxGraphModel dx="1009" dy="573" grid="1" gridSize="10" guides="1" tooltips="1" connect="1" arrows="1" fold="1" page="1" pageScale="1" pageWidth="827" pageHeight="1169" math="0" shadow="0">
      <root>
        <mxCell id="0" />
        <mxCell id="1" parent="0" />
        <mxCell id="xs7kMqRLCH-QeiT2XTBK-4" value="" style="rounded=0;whiteSpace=wrap;html=1;fillColor=#1ba1e2;strokeColor=#006EAF;fontColor=#ffffff;" vertex="1" parent="1">
          <mxGeometry x="50" y="50" width="720" height="520" as="geometry" />
        </mxCell>
        <mxCell id="xs7kMqRLCH-QeiT2XTBK-7" value="" style="endArrow=none;html=1;rounded=0;exitX=1.003;exitY=0.049;exitDx=0;exitDy=0;exitPerimeter=0;entryX=-0.004;entryY=0.047;entryDx=0;entryDy=0;entryPerimeter=0;strokeColor=#E6E6E6;" edge="1" parent="1" source="xs7kMqRLCH-QeiT2XTBK-4" target="xs7kMqRLCH-QeiT2XTBK-4">
          <mxGeometry width="50" height="50" relative="1" as="geometry">
            <mxPoint x="430" y="340" as="sourcePoint" />
            <mxPoint x="480" y="290" as="targetPoint" />
          </mxGeometry>
        </mxCell>
        <mxCell id="xs7kMqRLCH-QeiT2XTBK-8" value="&lt;font color=&quot;#ffffff&quot; style=&quot;font-size: 14px;&quot;&gt;Horas disponibles medico&lt;/font&gt;" style="text;html=1;align=center;verticalAlign=middle;whiteSpace=wrap;rounded=0;" vertex="1" parent="1">
          <mxGeometry x="60" y="50" width="170" height="30" as="geometry" />
        </mxCell>
        <mxCell id="xs7kMqRLCH-QeiT2XTBK-11" value="" style="shape=image;imageAspect=0;aspect=fixed;verticalLabelPosition=bottom;verticalAlign=top;image=data:image/png,iVBORw0KGgoAAAANSUhEUgAAAXUAAAGiCAYAAAAYxlZfAAABhWlDQ1BJQ0MgcHJvZmlsZQAAKJF9kT1Iw0AcxV/TSkUqDhYUEclQnSyIijpKFYtgobQVWnUwufRDaNKQpLg4Cq4FBz8Wqw4uzro6uAqC4AeIk6OToouU+L+k0CLGg+N+vLv3uHsHCPUyU83AGKBqlpGKx8RsbkUMviKAIPowjSGJmXoivZCB5/i6h4+vd1Ge5X3uz9Gt5E0G+ETiWaYbFvE68dSmpXPeJw6zkqQQnxOPGnRB4keuyy6/cS46LPDMsJFJzRGHicViG8ttzEqGSjxJHFFUjfKFrMsK5y3OarnKmvfkLwzlteU012kOIo5FJJCECBlVbKAMC1FaNVJMpGg/5uEfcPxJcsnk2gAjxzwqUCE5fvA/+N2tWZgYd5NCMaDjxbY/hoHgLtCo2fb3sW03TgD/M3CltfyVOjDzSXqtpUWOgJ5t4OK6pcl7wOUO0P+kS4bkSH6aQqEAvJ/RN+WA3luga9XtrbmP0wcgQ10t3QAHh8BIkbLXPN7d2d7bv2ea/f0As19ywTsoPrUAAAAGYktHRAAAAAAAAPlDu38AAAAJcEhZcwAALiMAAC4jAXilP3YAAAAHdElNRQfkBAgREh7uKvnsAAAAGXRFWHRDb21tZW50AENyZWF0ZWQgd2l0aCBHSU1QV4EOFwAAIABJREFUeNrt3X9QU2e+P/B3rO29vVVC7J1vr7SVIHY70KmRatnKWk2LK7K2/Bjca6XlprpMN2HVcWlHjJeyXc0UYavLBUtoB3EjXah3cfix2wW8xQW00FLdGNlNx7Vq6Lb03plKCHT3e7fbmu8ffs9pAgk/E3JO+n7NMK35Qc4nzznv85znPOeguHLlivvGjRu4ceMG/vEf/xG33noriIhI+ubNmwcAUCgUmD9/PubNm4f5X375JebNm4cFCxbcfGD+fNx2222YN28eFAoF3G73nC+o2+2GQqGQ/Rc+tg451TXRsnquF8FeRyZajtl+n9Nd9kC3n9TXBzlu/7NZ5um+d7af5VnvVD9LeJ/b7caNGzfwxRdf4MsvvwQACFk+3+1244477sCtt96KBQsWiGkfDqFKRBSu3G433G43/va3v+Hzzz/HV199Bbfbjfm33nqr2FMXeuhERCRtQsf79ttvBwCMjo7ixo0bmHfLLbdg/vz5EMKdiIjkFe633XYbbrnlFgDAvNtuuw233norh1uIiGRq3rx54iSXecIDDHUiIvn21ufPn/91qBMRUZj02vkVEBHJnzA1kqFORMSeOhERSYlwXpShTkTEnjoREUkJx9SJiNhTJyIihjoRETHUiYhoajj7hYgojPBE6f9XWloKhUKB0tJSrhVEJHtBDXWbzQaFQgGFQoHf/va3IS30tddeg0KhwFNPPRWQ33f16lXk5eVh2bJlYo0PP/wwXnvttSkty8MPP+z1vom+n7n8LKJQcblcOHjwIFwulyyWVbK/d3Bw0D06Ouq+ceOGO9D27dvnBuAG4N6yZYs7lKqqqnwuR0lJiRuAu6SkZMq/68KFC26VSuUG4I6NjXWnpKS4U1JSxFpTUlL8vnfLli1uAG6VSuVOSUlxr1q1Snzfvn37QvpZRKEyPDzszsnJca9cudKdk5PjHh4eluyytre3ux977DH3pUuXAvp7L1265H7sscfc7e3t037vjRs33KOjo+7BwUF3UENdpVK5VSqVOzY21g3A/dlnn0mugWYS6iUlJW6VSuWur68fF8BCrVVVVX4/a9WqVV7fxZkzZ8TgPnPmTMg+iyjUgV5cXCz5YBfCN5DBPtvfOSeh/tZbb7kBuA0Gg9tgMPgNHzmG+ltvveV3ByXUPbYH/dlnn4k7OV/vFZbDYDCE7LOIQhnoQg+1vb39GxXsgfhdcxLqwqH/mTNn3BcuXBB7jeEQ6hP57LPPxCEOT/X19RMG6ZUrV8ShEil+FtFcBLrnEMc3IdgDtXPwDPWgnCi9fv06Tpw4gdjYWKxZswYajQaxsbE4d+4cbDab3/dt3LgRCoUCZ8+exfXr11FaWup1cvCpp57y+f6zZ89CoVBg48aN4oyWRYsWib8rFLNcVCqV17/7+/sBAGvXrvX5+qVLlyI2NhZOp3PC7yjUn0UUqBOCO3fuhN1ux8svv4wNGzZ4Pb9hwwa8/PLLsNvt2LlzpyRPnn7rW99CVVUVAECv1+NPf/rTtN7/pz/9CXq9HgBQVVWFb33rW9Kd/dLQ0AAA2LJli/iY8P//+Z//Oen7R0ZGsHHjRhQUFGDZsmVISUlBbGwsTpw4gRUrVohB7W+KYkFBAZxOZ0ga+r333gMAJCYmej1+/vx5AMA999zj973Lli0DcPOvgkvts4jmKtC/CcEerEAPWqhXV1cDAP71X/9VfEz4f7PZPOn7d+3aBQD47LPP0NbWhra2Nnz44YcwGAwAgLS0NFy/ft3new8ePIiqqiq43W643W6sWbNmThu5vLwcAPDss896Pf7hhx8CAKKiovy+d+XKlQCAnp4eyX0W0VwGejgHezADPSihbrPZcO7cOcTGxkKj0YiPazQarFq1Ck6nc0rzpNva2nDnnXd6PVZZWYmUlBQ4nU7813/917j3tLe3Y+/evfjhD38YksZ97bXX0N7ejlWrVo2bD3/lyhVx6MMfpVIpyc8iCkWgh2OwBzPQg3abAGF4xXPoRZCbmwsAOH78+IS/47nnnhsX6ILMzEwAQHd3t8/nf/CDH4SkUf/93/8der0eq1atQltbW9h8FlEoAz2cgj3YPXR3sG4TIAyv+ArX7373uwCAEydO+B0+AYCkpCS/zz3wwAMAbl5lOVZsbKzfnUGwXL9+HRs3bsTLL7+MlJQUn0cY07VkyZKQfxaRVAI9HII92IEetOGX3/72t+IJytjYWHHWivATGxsrvlY4mRpIwsm/uWKz2XDfffehvb0dJSUlE4ZsSkoKAEx4kvf06dMAfJ/gnMvPIpJaoMs52E+dOjVngQ4A8wP5y4RhlVWrVvkNnOvXr+PcuXOorq6e0dj3yMgIACAyMjKkDffmm29i69atUKlUOHPmzKQnZIXlFZbf33cDjD/BOZefRRRIhYWFAQt0z2AHgH379qGwsBAVFRWSDXa9Xo99+/YhIiJiTgI9oKEuzE0Xhlf8naS7fv06/vmf/1mcs+55MlXwxz/+0W9wvfPOOwCAhx56KGQNZrPZkJeXh9jYWJw6dWrCE5KCxx57DCdOnMA777yD733ve353drGxsV6/by4/iyjQdu7ciSeffDJggT422NVqtWRrF4J9z549KC0tnZNAD+jwi+fc9ImC4s4775x0znpjY6PfHYIwZi8MMYRCcXExnE4nfvGLX0w5FIXzCWaz2ef5hKNHjwK4eZI4VJ9FFIxgC3Sgewb7XAXlbOpvamqa0+UMWKgLc9MzMjImfe2//du/iaHjS3t7O/Ly8sYF+saNG+F0OrFlyxafPfy54nm17FQtXboUBoMBTqcTL774olfYnj17FgcPHoRKpRp3gnkuP4uI5C8gwy/C3HTPXuJEvve970GlUolz1scOEVRVVcFoNOLNN98Ur5Zsb28HcHO8/tVXXw3ZFyacfBwaGhJvS+DPs88+6zWH/MCBA3j//fdhNpvF2oShEJVKhd/97nde5yLm8rOIiKEu8pybPtWgeOqpp2A2m3H8+PFxof7AAw/gd7/7HYqLi8Vx+lWrVuH73/8+fvCDH0gijJxOp7ij8efxxx/3+vedd96JtrY2HD16FK+//jra29uhUqlgMBjwwgsv+B1emcvPIiJ5UwwODroXLlyIO+64Q7wiKVQ2btyI9vb2Kc3wICKim9xuN/76179iZGSEf6OUiChcgh3gH54mIgorDHUiojAQtBt6ERHR3OPwCxFRGJovpYXhbWSJiGaHPXUiIoY6EREx1ImIiKFOREQMdSIihjoRETHUiYhIKqE+f/58fhNEROypExERQ52IiBjqRETEUCciYqgTERFDnYiIGOpERMRQJyIihjoRUbjh3yglIgoj/BulRERhiKFORMRQJyIihjoRETHUiYhoYpz9QkQURjj7hYiIPXUiIpKyoIR6Xl4eFAqF+JOXlye7L0ao4ezZs5O+5urVq7KqbePGjV7t4/lTWloqqzp8rVt5eXlYtmyZz8c3btwYVu20bNkyvPnmm7IMn7E5oVAoZNU+Usu9oA2/CI3idrvFHzmrq6vz+fjVq1dx6tQpWdbU1tYmtk1KSgpKSkrEf+/Zs0c2dTz77LMwm83jHj916hSuXLkybmd76tQpPPvss2wnCTEYDF5Z0dbWJss6pJR7AQ31q1evor29HS+88ILX45WVlbJsqJSUFJjNZp898YaGBp+9QZo7iYmJAOB1NHX16lVcuXIFsbGx6OvrG/e48B6icM29gIb60qVLAQCDg4N+X+NrSEOqh5BLly5FSkoKGhoaxj1XUFDgt9c39pBSjiupr2GlyYajQtE+sbGx6OnpER/r6+tDSkoKNmzYgO7ubq/HY2NjxXX07NmzXm0k1yEMz20oXGoBgDfffBPLli1DaWmp5Idwp5J7wjY1F0MzAR9+KSkpwaOPPiqrsdnJDvFff/31cStcSkrKuF6f0HD19fXiIVhJSYksg10unnvuOZw+fVr89y9+8Qs8/vjjWLt2rdfwWHd3NzZs2CAG+qOPPoorV67A7XbjypUr2Lp1q6R2WNOxdetWnDp1Cm63G/X19di6davszvP4cuXKFTgcDrjdbskf7U+We6+88oq4vrndbpjN5qDtfAMe6nv27MGVK1dQUFAQFr2Gp556Sgxyz+Dw1Ut/5ZVXYDAYxPcI30dsbGxY9J6kKCkpCe3t7eK/29vbsXnzZiQmJnqNq586dQpr164FAJhMJtTX14s9rKVLl8JgMPg9fyJ1JSUlYi3CujdRr1FKzGbzhEdMchm6nSz3KisrxTYCbp5L+Oijj+QR6sJG4na7cebMGWzdulWWs1/G9gZ/8YtfiL289vZ2r+D27KkLweFpw4YNQWvAb7o1a9aI7XL27FlxiEUYOuvr6xPH04U2+/DDD7F161avMPF1wlUulixZ4vXv2NhYfPzxx7JY9rEnSj23q9jYWFm1w2S55zk7xmw2w+FwyCfUPTe4K1eu+D3ZKBd79uxBe3s7rl69irq6OpSUlDBNJSQlJQU9PT3o6ekRh1gA4PHHH0d3d7c4zu7pzJkzXmEih0N8kk9HY2zuCUOwwrpmMBiC9vlBv/jI85DDXy/iypUrsuhR5OXlwWw2Y/PmzX5r9Tw5Jzh16tS43pTUexxjD+GlvFN+9tlncfr0aZw+fdrrSCkpKQlmsxnd3d14/PHHxceXLVvmdXKVKJi5JxxBenYagrk9BXxK49hDjtLSUq9ZBxs2bEBhYaHXIYkcZGdno729HQaDYdyOSvDCCy+MOwEinDjxNVwj9d6vyWSSRTslJiaivb0d7e3tXievhaEZs9mMpKQkr51AQUGB14nR0tLSsDi5SHNvKrnneX7nzTff9DoPJOlQX7p06bgTH6+//jo+/PBD8TXC3kp4fu3atbIYO1uzZg1SUlKQnZ09Yf3CTAp/9ctFW1sb2tvbxTo8d8RS7BXFxsZ6bUSeOyfPgBd2sPX19Xj00UfF+k6fPu13Z000m9xbs2YNDAYDYmNjoVAo0N3dHZThF+GCJ8Xg4KBbpVLhH/7hHzj1johIhtxuN/7yl79gdHSUN/QiIgonDHUiIoY6EREx1ImIiKFOREQMdSIihjoRETHUiYiIoU5ERAx1IiJiqBMRMdSJiIihTkREDHUiImKoExF9swn3U2eoExGFAeHvYTDUiYjCyHwAGB4eFrvuREQkPwsXLvw61AFgwYIFYVHY559/DtYkr5qIKHA4/EJExFAnIiKGOhERMdSJiIihTkTEUCciIoY6EREx1ImIiKFOREQMdSIihjoRETHUiYiIoU5ERAx1IiJiqBMRMdTHa2hoQGZmJiIiIhAREYElS5YgPz8f/f3903qfRqNBWVlZyL8Uh8OB/Px8aDSaccs2NDQ04Xv7+/uRn5+PJUuWeH0Xk71PyjWNrW/dunWSaKfpqKysRFRUlKw31ubmZmRnZyMqKgpRUVGIi4uD0WiE3W6XZT0DAwMwGo1ISkoSa0pKSkJlZSWcTmfYhKzT6URcXByioqJQWVkZ9M9TDA4OuhUKBe64444Z/YL8/HxUV1cDAJKTkwEAV69exbVr1xAZGYnq6mps2LBhSu87f/48hoeHkZCQgMbGRixatGjayxOIPyiRmZmJjo4OJCQkiMvQ0dEBABMuW29vL7Zs2SLWsGjRIrGmyMhIdHd3Q61Wy6omT2VlZTh8+DCGh4exf/9+7N69e8Yr3lz9kQy73Q6TyYTOzk4AwODgoCyDwWg0wmKxAAC0Wq24o3Y4HFAqlThy5Ii4HclFdnY2Ojs7odFooFKpAEBsJ41Gg7q6OvFxOausrITJZAIAFBYWIi8vLyifs3DhQoyOjs6+p15dXY2srCxcvHgRjY2NaGxshM1mwwsvvIDh4WHk5ub6DIfq6mokJCR4ve/ChQtISEiA1WrF8ePHQ9YI69atw8WLF9HV1SUum8PhEJdNaCBPQ0NDYqDX1NSI771w4QJyc3MxPDyMH//4x7KqSQiOmpoaaDQaFBUVYXh4WBYbUkdHB4xGI9avXy8GhZxZLBakpaWht7cXdXV1qKurQ09PD3bt2gWXy4UdO3bIrqY1a9agt7cXra2tYk1//OMfodFoYLPZUFpaGha99IqKijn9zFn31BsaGrB582a/QWK1WtHe3o7Vq1eLjy9ZsgTDw8O4ePHiuJ7r0NAQVqxYAQD46KOPQtKrnWjo4Tvf+Q4iIyPHLVtZWRmKiop89mCFmvzVLNWaPHv4APDCCy+go6MDVqtV0j31vr4+ZGRkAADUajWeeeYZcacl1556c3Mz0tPTfT6XmpoKm82GpqYmJCYmyj4I7XY71q9fD6VSiQ8++EDWtRw8eBDl5eXQarXo7OyUR0/dX6B7Dqu89957XkMUw8PDSE5O9hluixYtwubNmzE8PIxTp05JqoEefPBBAPDZWz127BgAiGHiqyYAOH36tGxqAoDIyEjk5ubi4sWLKCoqmtGQWChoNBqYzWb09PRg1apVsg86f4EudJ4A4Ny5cwgH8fHxAACXyyX7nVN5eTl0Oh3WrFkzZ587J7NfIiIipvX6JUuWiF+KlAgnFGNiYsY9fu3aNcTExPjthSclJQEAzpw5I4uaPHdWhw8fntG5gFBJTExEa2vrhEEYjoS/Jh8OQxbCUZacPf/881AqldizZ8+cfu78YP5y4bA9Li5uRu+fyfBLMAnj/Nu2bfN6/NKlSwCApUuX+n3v3XffPWGPWGo1kXx0dXUBAO6///6wqKe+vh4A8Mwzz8i2hsrKSthsNpSUlMzZyV632x3cUO/t7YXVakVMTIzXePrixYvFwHc4HD73xsJKeu3aNUk0UH9/P44dOyaeFB47lvzJJ59M2Nv13OCEHZ3UayJ56Ovrg81mg1qtlv14ut1uR21trXhSOFhjz3PRJiaTCVqtFjk5OXP2uQqFInihPjQ0BL1eDwD42c9+5vWcWq1Gbm4uqqurodPpYLFYxGAfGhqCyWSSRPB5niAEbo4tl5WVYfv27eNe+/HHHwP4etjIFymMRU+nJpLHMIWwMz5w4IAsaxCmNQqUSiVKSkrmNAyD0SZKpRLFxcUhWYaAh3p/fz+eeeYZXLt2DTU1NT7nqBcWFuL8+fOwWq1Yvny5OHdaCJz9+/ejqKhowp5vsCUkJHjtpKxWK3bv3o0//OEPKCwslM0Jw3Cv6ZvKbrcjNzcXDocDZrNZdnPUBcuXL/cKRJvNhoKCAtjtduzZs0d289SNRqPYJtHR0fIP9YaGBuTn5wMAampq/M6MWbRoERobG3H8+HEcO3YMVqsVAJCVlYXnnnsOo6Ojk/Z8g62oqMjr3w6HA+Xl5aiursb58+fFIaLpCuWOKlg10dxqbm7G3r17AQBms1nWJ4SFOgQDAwOoqqqCxWLBhQsX0NraKptaKisr0dLSAp1OF9I2Cdjsl/z8fGzfvh0xMTF46623JpzqKAT77t27YbPZMDIygpGRERw7dgyrV68WZ73cc889kmkwtVqNw4cPIzk5GVarFQ0NDeJz3/72twFgwlDs7e0FMPHJVCnVRNLtCRoMBqjVapw8eTLsZvhER0ejuLgYWq0WNpsNzc3NstnRmkwmaDSaOZ/tEvBQHxoawrp161BdXY3c3Fw0NjaKc59nSghHKc4vFuYEC+PowNcXBE10DxXh6COUPfXp1ETS4nQ6kZqaCovFAp1Oh7q6OnE+dzgS5nULkxCk7sSJEwAAm82GBx54QLyXjfAjXPxmMpkQFRWF7Oxs6Q6/mEymgFxh6DkkINyjRC7zVB988EFERkbCarViaGjI59j0u+++C+Dr+epE01FaWgqbzRbUKxJp5jzPDfjLNWG2n1qtnvT1IQv1/v5+VFdXIzk5OWBT4n76058CAHbu3CnJxhOOIsYODW3evBnV1dU4fvy4z9sEVFdXIzIyEo8//rhsaiJpsNvtsFgs0Gq135hAP3v2LICvr++QurHnBsYSbur1zDPPBL0NZzX8IsxWefrpp6f1vpqamnG3ABgaGsK2bdtw8uRJJCcnTzomHyw1NTVoaGgYN5QyNDSE/Px88Shi7PLt2rULAHD48GFx/Fx4n8lkwvDwMPLz80Myw2SmNZE0CFP+tmzZEjY11dbWorm5edwtdp1OJ4xGo3j3xm/aVcGzEZB56kIPr6KiAr/85S8nfG1jY6P4/yMjI9i8eTNiYmLEE4fCDiI5ORlHjx4N2RczMjIi9rQ9p4l53qb2yJEj496nVqtRU1OD7du3IyUlZdytd3Nzc0N2gc9MayJp9VqrqqrEsVt/6urqZFHT6OgoCgoKAHx9K2HPHZhGo8GhQ4fY+NMQ0CtKhSmJU5WcnAybzYaOjg6vMH/66adD3lvMyMjAyMiI17IJy/fkk08iIyPDb2978+bNuPvuu/H666/j5MmTYmDu3LkzpHXNpiaSDpvNFja1bNq0CSMjI+jq6vK6+Eir1SI1NRVPPPFEWNxLPSQ99tneeldqgnmbWtYUnJqIaPYCdutdIiKSDoY6ERFDnYiIGOpERMRQJyIihjoREUOdiIgY6kRExFAnIiKGOhERMdSJiBjqRETEUCciIoY6EREx1ImICPD4IxnheH9r1kRE7KkTERFDnYiIQm8+vwIKtagX3w+LOgYPPMzGJPbUiYiIoU5ERD5w+IUkxV2dJqvlVeS2sNGIPXUiImJPnb5BOi99hs5L1yW7fC+l3c9GIoY60dRD/Tp+2nJJksv2EwY6SRiHX4iIGOpERMRQJyIihjoRETHUiYgY6kRExFAnIiKGOhERMdSJiGhuQ31gYABRUVET/shZX18f9Ho94uLixHpSU1PR0dEhmxqys7MnbSPhp6+vT1btE33n7Xj7+SR8VrYR7uo0uKvT8OeffRfNOxIRfeftslznBgYGYDQakZSUJLaLXq+H3W6XXS2VlZVTygC73Q6j0ShuZ3FxcTAajXA6nbKtaWx9qampqKysDNhyBO02Af/zP/8DAFAqlUhISAirPeHBgwdRXl4OANBoNFCpVAAAp9OJS5cuITk5WRZ1LF++fNLXdHZ2AgDuuusu2bTPlofvRs22Ffin227xevwe1e24R3U7vrNsETJffR9nLl+XTU12ux1ZWVlwuVxQq9XQarVwOp1oaWlBS0sLzGYz0tPTZVGHyWQS16vJOk46nQ4ul0vczqxWKywWC5qamtDW1obo6GhZ1TR2J1BRUQGXy4Unn3xS+qEuyMjIQHFxcdgEemVlJcrLy6HRaHDo0CHEx8fLtpa9e/dO+HxtbS06Ozuh0+kksfFM1atPPygG+sWPR3D0zEcAgB88ugTL74nAnQtuw9FnV+Bb/y6Poyqn0ykGeklJCXJycsTnmpubYTAYsHfvXqxdu1bsYEhNR0cH3n77bVgslinXLAS65w7L6XSitLQUFosFRqMRdXV1sqlJONrq7u6G2WyGw+GQ1/CL4N577w2bQB8YGIDJZIJarUZdXZ2sA30qG9XLL78MpVKJPXv2yGa5dyUvxZ0LbgMAXP6fv0DzUifKO66ivOMqNC914vrnXwAA7rvrDjx6352yqOk3v/kNXC4XdDqdV6ADQHp6OgoLC+FyufCb3/xGksvf19eHnJwcWCwWqNVqFBYWTvqe+vp6uFwuFBYWeh2BqFQq7NmzB0qlEp2dnRgYGJBNTQBgNBpRUFAAh8OBXbt2QaPRyCfUL126hHBTVVUFACgoKJBsjyhQhI1q586dsq31g09Hxz029Je/i/+fsEQpizpaW1sBAJmZmT6f37RpEwCEtNc6GY1GA7PZjJ6eHqxatWrS17/xxhtetXlSqVTIyMgAAHR3d8umJgCIiIiATqdDb28v9u7dG5RtK2jDL6Ojo2EXdE1NTVCr1bIYu5xtL72iosLvRiVl1o9c4v+r//mfxj1/+203+zF//eIrlHdcDYv2EobGbDabJJcvMTFR3DFNdf1zOBxQq9V+h/0eeeQRWCwWvPPOO+OOXqRY09iOYTAFffjl/vvD497TfX19cLlcWLduHcKd5+G+nMbSAeDM5evo+OAzAMDyeyJQm/sQou+8HdF33o7efY/iHtXNmS81Zz8Ky7YL1XBEIF2+fPnmTlmt9vuaxYsXAwBGRkZAcxzqOTk54vSrpKQkGI1GWa54586dA3DzHIHdbveazihMswqHDQoAzGYzAECv18ty+dcf6kHLhf8GADzzyD1wlHwXjpLv4pGlKvz1i69w5PQ17Kzrl11PvLGx0W+HQyDMOpOzTz/91KtuX+677z4AmPaME4b6LPz5z3+GVqsVfzQaDRwOBywWC1avXo3m5mZZfmEXL15EVlYWurq6kJCQAK1WCwCwWCzYuHGjLOcMe2pubobD4YBWq5VdL10MwTtvx/+J+Aefz/3TbbdglTpSVnPVhZ2rxWJBbW3tuEDX6XRhFUqffPKJ2IHyJ9zPac1G0MbUfU1j9JyOZDAYsGLFCtkFR0tLC9LS0lBcXOw1P12o6/nnn5/RWJtUnDhxAgCwZcsW2dZwdu8acZil5cJ/45X2KwCAF1JikbbiX/DIUhX+Kz9JNlMao6OjYTabYTAYUFBQgJdffhkJCQlwOBziDljotcrpegKS6fDL2L1rcXEx0tLSANycYSE3arXaK9CFuoRpVjabTba99YGBAXR2dkKpVMr2ZHBt7kNegZ5+pA9nLl/HmcvXkX6kTxyWue+uO1CR/aBs6kpPT0dTUxPS0tLgcrnEYYfCwkK8+uqr4hWWcj26ms32SCEMdcH3v/99cShDbtLS0nwe+qlUKvEk6vnz52W5Mrz11lsAIE4Xk6Nvx3zdNrvqx4+bC712AFj7rTtlVVtiYiKqqqowODiIwcFB9PT0IC8vDyqVCjabLWwCTpgeePbsWb+vEc4jMNQlEuoLFy6U3RclLHNERITf1wiX3ct1OqcwN3j9+vVhsXIPXP+/4x7zvDXA7bfeEhZ1CgEXLjOzFixYAAAT3t9F2Ma+aUcmkg11OYbeypUrJz26EJ6T4zTOgYEBOBwOKJVK2dwR8zOdAAAgAElEQVS7ZjK+TobK5SrS6RBmxYTLzjg+Pl4cyvQX7O+//z6Am/PVSQKhfvToUQBAamqqrFY0tVqNlpYWn1MXnU4nurq6AAAPPfSQ7FYE4co8uff2Phr6undevnX8mPlP0r7e4fq64lRu7Ha7eKl6uOyMga+HAH2dd3M6nbBYLFAqlVi7di1TfK5CXa/Xjws/p9MJo9GIzs5OqNVqPPHEE7L6sgoKCnzW5nQ6kZ2dDZfLhV27dslyutU777wDAPjOd74j6xX6py2X8NcvvgIApK34FzTvSMSu5KXYlbwUvfseRXLcPwO4eUWprzF3qdLr9eN6rR0dHcjKygIAlJWVhVUwCdM4KyoqvObhCzPN5H4Li2AK2pRG4ZagnremFc7Yq9VqVFdXy65B0tPT8e6774pz7YWpZFarFS6XC1qtdtI7H0qVcJQh9yuAz1y+DuPJD1CcFYd/uu0WpK34F6St+Bev1/z1i6+w/dgFn2PuUiVsT8I6J0xnVCqVMJvNSExMDKtg8pzGmZGR4XXrXeFq57y8PCb4XIZ6YWEhfv3rX3vdj0Kr1SI1NRVPPPGEbPewxcXFeOSRR1BVVSXupDQaDfR6vWynAQ4MDMDlunnPlHAIh/KOq7B+5MJP0u7HinsjxLs2fuz8v7j033/BD35hlVWge25Pnh0jnU4HvV4fticL09PTsXjxYtTU1KClpSUstrW5oBgcHHQrFAq43W5+GxQSUS++L/6/u/rmNQwvtVzCT1ukeafPn6Tdj5f+/9i8IrdFfHzwwMNsTAqZhQsXYnR0lH+jlIgonDDUiYgY6kRExFAnIiKGOhERMdSJiBjqRETEUCciIoY6EREF0nx+BSRVnndUlJKX0u5n4xBDnYjBSRR8HH4hImJPnSg4PG+QRUTT2HYUCvbUiYjChXCnXYY6EVE49dh5P3UiIvnj/dSJiMIQQ52IiKFOREQMdSIiYqgTERFDnYiIoU5ERAx1IiJiqBMREUOdiIgY6kREDHUiImKoExERQ52IiBjqRETEUCciYqgTERFDnYiI5BnqlZWViIqKmvA1AwMDMBqNSEpKQlRUFKKiopCamora2lpJflFTqam5uRnZ2dliPVFRUdDr9ejr65NtTRO9bybvlUJNRqPRq43G/lRWVsq2nZxOJyorK5GamirWExcXB71eL5ua+vr6Jmwfz5/s7GzZtVNfXx/0er1YQ1JSEiorK+F0OgOyHPMDWZTdbofJZEJnZ+ekr8vKyoLL5YJarYZWqwUAdHZ2wmazobW1FXV1dZJoqKnW1NfXB4PBAKVSKdbjcDjQ0tKClpYWmM1mpKeny6omf6FRUVEhuTCfTk0DAwMAAI1GA5VKNe75u+++W5btZLfbkZubC4fD4bUeAkBXV5dsalqwYIHXsvvicDjgcDgQHR0tq3Zqbm6GwWDwWv+sVitMJhN+/etfo66uzuc6Oeeh3tHRgbfffhsWi2VKrxeKHxt0wkrZ2dmJ2tpa5OTkhKyhplvTggULUFJSMm6ZhUY0GAxYsWJFSFfC6dbkS319PVwul2TCfDY1VVVVSSIUAlGT0+kUO0qFhYXIy8uTbU3x8fETduqcTic2bdoEACE9ApluOw0MDIiB7pl9TqcT2dnZsNlsKC0tRXFxcWiHX/r6+pCTkwOLxQK1Wo3CwsJJ33P//fejp6dnXM81Pj4eBw4cAAC0traGrLFmUlN8fLzPnVB6ejrS0tIAAN3d3bKqyddKWVFRMWkvSi41STHQZ1pTaWkpXC4XSkpKJBfogVj3xnYsHA4HCgsLQ9aGM6lJ2P51Op1X9qlUKlRVVQEAmpqaZr1sARlT12g0MJvN6OnpwapVqyZ9fXJyst9DjIceesirNx8q061pIsuXLwcAjI6Oyrqm4uJiuFyuWfckQl2T1WqFlE23poGBATFcQnl0OxfbkzD8p1QqsXXrVlnVJGz/9957r98ORiCOgmc9/JKYmBiUXrVSqQxZYwW6ppGREQChHaudbU0dHR1oaWkJae8oUDVJafgoEDUJPcCCgoKwqWmiXrrL5YJOp5v12LMUcy8QJDel8fe//z0AICEhAeHA6XTCYrFAqVRi7dq1sq1hx44dUKvVIe8dBbKXFS6EcFmxYgXCnXCSXmqzeaZC6M2fPXvWZ6cJQECGNiUX6kePHgUAbNmyRfZh3tzcLJ7QsVgsIe1ZzMaPfvQjuFwulJWVybaGsWw227ipcc3NzbKsRRiqjI6OHjedMTU1VbZ1jdXc3Cz20qV4PmQqvXudTofOzk7o9XpxFlZzczN27NgBpVI56/MNARl+CaTa2lp0dnZCo9FIZvrfdPT19SEjI8PrMa1Wi/r6elmuhJ5tsmvXLiQmJso+GPr6+sb1hqxWKzo7O9HZ2YmqqqqATCsLBaPRCIvFAo1GA61WC6fTCZvNBoPBgHfffVdS50JmoqSkBACQmZkp2xqENrBYLGhpafF67u2330Z8fHz4hPrBgwdRXl4OjUYjmTnq0zV2fq0QFlu3bsWBAweQnJwsq3rsdjsKCgqg0Wjwwx/+MCx6e4mJiT7Xr76+Puh0uoBNKwuFpqYm1NbWeq1nQl0WiwXr16+X3TroWYfD4YBarZZ156KyslKcAilkhbDzff7553Ho0KFZB3vIh1+EOZrl5eXQarWy7SUBX8+vFX4++OAD1NbWwul0IicnRxw3kwNh3rNSqcShQ4fCZthlorA/efKk2IsK1NV9c2nfvn3jQjsxMRE7d+4EAPzqV7+Sbfs0NjYCgDjPW66BbjKZoNFo0NvbK+ZEa2srmpqa4HA4kJWVNet1L6ShbrfbkZSUhM7OThQWFso60P1JTk4W98wvvviibAI9OzsbLpcLBw8eDMghoVx2ysIJ1MuXL8tu+Z944gmfjws9QqlcVTqT9VGYvy3nyQYmkwmA74vehJ2vy+XCa6+9Js9Qb25uxvr168XDRqldMBHoXiBw89JmObh8+TJsNpvYM/J1zw2B8G+p3t9muuTYqRCm//pbdmGnLOWpnBPp7u6Gy+WCRqOR7bkpoZMwUQ3C7JiLFy/O6rNCMqZut9uxd+9eqNVqWZ9EDFdTufeGMONCeN2CBQvConY5DrusW7cOLS0tsNvtPo+q7Ha7GChy9O677wKApG7eJWUhCfXy8nK4XC5YLJZvRKALvVi1Wi2bYYjJTlYLvXW5ntT21042mw1KpVJWJ+NSU1PR0tKC2tpanyd4hR3wunXrZNkuwtDLypUrZd1RAm5OpR0YGPCZe+fOnQMAREREzOqzQjL80tLSIvuz2GPp9XqxRzQ2KHQ6HQCI97Wh0KmtrfU5b9uznfbt2yermtLT06FWq2GxWMbdurq5uRkmk0kSl9XP9Kje5XJBqVTK+txOfHy8eFTrKytqa2vFMfft27fLq6cu9FqFk3ET2bJli2zmqwu32FWr1WKPXLg9KAAUFhbKdjpZOBkdHUVBQQH27t0rXrXs2U67du2S7P1TJlJdXY2srCwUFBTAbDZDrVaLU+WUSiWOHDkiy6Pi8+fPAwiPK8xfffVV8W6M69ev97r1rnC+w2w2z7qzG7J56i6Xa9Kbdq1Zs0Y2DWY2m9Ha2oquri4xINRqNXQ6HTIzM8PqqETOtFotLl68iK6uLnH9C4d2io+PR1tbG6qqqsTpcUqlEjqdDnq9XrbDnEKPVk5Z4I9KpUJraytqa2tRV1cnTkYQ2ilQ659icHDQrVAo4Ha7ucUTEcnUwoULMTo6yr9RSkQUThjqREQMdSIiYqgTERFDnYiIGOpERAx1IiJiqBMREUOdiIgY6kRExFAnImKoExERQ52IiBjqRETEUCciIoY6ERFDnYiIGOpERMRQJyIihjoREUOdiIgY6kRExFAnIiKGOhERMdSJiBjqRETEUCciIoY6EREx1ImIiKFORMRQJyIihjoRETHUiYiIoU5ExFAPpMrKSkRFRU36uubmZmRnZyMqKgpRUVFISkpCZWWlJL6YscsWFxcHo9EIu90+4fvsdjuMRiPi4uK83ud0OmVb09j6UlNTZd1OAwMDMBqNSEpKEt+XmpqK2tpa2dY09j1RUVHQ6/Xo6+uT9fbkL1umki9SrMloNHq10difQGxXisHBQbdCoYDb7Z71L7Pb7TCZTOjs7AQADA4OTlicxWIBAGi1WgCA1WqFy+WCRqNBXV0dVCpVSBrL17I5HA44HA4olUocOXIEycnJ497X19cHnU4n1qBSqcSalEol2traEB0dLauaxm5QFRUVcLlcKCwsRF5eXkg3qpnUZLfbkZWVBZfLBbVaDbVaDQDiOqvValFXVyermvr6+pCRkQGlUomEhASv9wCA2WxGenq6rGryxel0IikpCS6Xa9J8kWpN2dnZ6OzsFPNhrC1btsy4rRYuXIjR0dHAhHpHRwfefvttsUiBvy+9srISJpMJGo0GVVVVYtA5nU5kZ2fDZrOFNDSioqKQlpYGo9HoFcIHDx5EeXk5lEolPvjgA78rnOdG5HQ6UVpaCovFEtLAmElNQq+2u7sbZrNZDAkAkgj1mdQk7JgOHjzotfHY7Xbk5ubC4XCgpKQEOTk5sqnJbrfj/Pnz45a5ubkZBoMBANDb2xuyDsVM1z1/uTFZvki5JiHUg9EeAQt1oZcAAGq1Gs8884z4xfv70uPi4uByuXwWJoQjgCk1dLAOq/ztLVNTU2Gz2dDU1ITExMRxK5yvsPMM/FBtXDOpyXMlBIBdu3ahq6sr5Dvd2dTU0dGBhx56yGcvqaOjAzk5OSHd+c60nfzR6/VoaWkJ6Y4qEDUNDAxg48aNSEhImNJIgNS3p2AsuxDqARlT12g0MJvN6OnpwapVqybdCbhcLmi1Wp/hplKpkJGRAZfLhY6OjpA02ESHP+vWrQMAnDt3zuvxN954AwCwadMmvzUBQHd3t2xqAoCIiAjodDr09vZi7969IRsSC1RNycnJfmt46KGHvIZi5NRO/ixfvhwAMDo6KuuaiouL4XK5UFxcLNt1D7g5xBxssw71xMREtLa2BnTM7t577wUAXLp0CVK1cOFCr564w+GAWq322wt/5JFHAADvvPOOLGoSVFVVobi4OGSH7sGoaTJKpTJsahoZGQEA3H333bKtqaOjAy0tLSgsLJTVeuirJuF8gKRDPZj+/Oc/S26Zurq6AAD333+/+Njly5fF4Sd/Fi9e7LWRSb0muZtJTb///e8BQDzZKPeanE4nLBYLlEol1q5dK8uanE4nduzYAbVaja1bt4bFuqfRaMIr1O+66y7xEHdgYMDna86ePQsAfp8Plb6+PthsNqjVaq+xsk8//RQAJuxF3HfffSE/tJ9OTXI205qOHj0K4OYMBDnX5HQ60dzcLA4FWiwWSQ2bTaemH/3oR3C5XCgrK5NkDTOpyWazeU1jzM7ORnNzs3xDPTo6GjqdDsDNkziewe10OmE0GiUXfMKy7d69GwBw4MABr+c++eQTAF8PG/kixRVyoprkaqY11dbWilPNQjn9b6Y19fX1iSHxwAMPwGAwQK1Wo62tTZI766nUJLTJrl27ZNHhmKymvr4+aLVarx+lUonOzk4YDAakpqYG5HqW+aEofs+ePbhw4QJsNhtWr14tztkUwrywsBAmk0ky42ee093MZvOU5tRKHWv6mjANTbg+Qo41LViwQJwvDdw8IdfZ2YmtW7fiwIEDkmrfqdRkt9tRUFAAjUaDH/7wh2Gx7iUmJvpcv4TrW2w2G0pLS2d9MjgkY+oqlQp1dXUoLCyEWq2GzWZDZ2cn0tLS0NTUJI5FTdTznSvNzc3IysqC0+kMyEUcE427y7UmKZhJTcJ1EeXl5eI0RikdUU2npvj4eNTV1Yk/H3zwAWpra+F0OpGTkxOymWQzqcnpdCIrKwtKpRKHDh2S/LDLbLenxMREnDx5Uhwqm2lvXZiWHrITpSqVCnl5eejp6cHg4CAGBwdRVVWFxMREcdZLqM/YG41G8TD25MmTfhtLmMYpnAvwd3gshVCfak1yMpOa7HY7kpKS0NnZicLCQskFeiDaKTk5Wbwg8MUXX5RFTcKO1uVy4eDBg4iPjw+7dc/fTlk4gSpMvJDV8MtkhHBcsWJFyMbGhCtbdTod9uzZM+EGv2DBAvF9/gjzhEM1pDTdmuRgpjUJV1oqlcppXcgjx3YSavO8GljKNV2+fBk2mw0AYDAYxCtifRHu/xKKNgzG9jTb9ysUCmmG+sDAgHjCKlQBWFpaOq2rJuPj46FUKmGz2eB0On02zvvvvw/g6/nqUq9JDmZSk91ux969e6FWq1FfXy+5ec/f9HYae27AF8/79Hh2quTeToG66Z/kQl04SaDX60Py+Xa7XbxPy3QaKyMjAxaLBfX19T5vExDK+cIzrUnKZlpTeXk5XC4XLBaL5AI9GO0U6mG/6dYknBuYiNBDD9VJ7WC1k81mg1KpnPVRR0jG1Gtra8eduHE6neJ9KrRabcjGeoVewHTnKgs7oYqKCq/bnQo39HK5XNi5c2dIhjxmWpOUzbSmlpYWyc7Jn8265+t2r8KsCiB0U1a57nnnnq/56J7ttG/fPnn21EdHR5GTk+P31qevvvpqyBpMGM+vqqrCiRMnJnytZ08hOjoaZrMZBoMBGRkZ4269q9PpQtZLnmlNUjaTmoSdrTAeOpHZ3AJ1rtuppaVF3FkJ25PnrXcLCwtDNqWR616dV+4VFBRg7969Pm+RvGvXroDcdC0koa7VanHx4kV0dXWJBWm12pBsSP4IJ2umIz09HYsXL0ZNTQ1aWloA3LwkWK/XS6KumdQkdTOpyeVyTXqB25o1a2RTk9lsRmtrq9f2pFarodPpkJmZKYmjEq573rknrH/BaKeA/pEMIiIKjYDeepeIiKSBoU5ExFAnIiKGOhERMdSJiIihTkTEUCciIoY6EREx1ImIiKFOREQMdSIihjoRETHUiYiIoU5ERAx1IiJiqBMRMdSJiIihTkREQTefXwERTcWCBQvCoo7PP/88rGtiT52IKIww1ImIGOpERMRQJyKioFAoFAx1IqJw4Xa7GepEROGGoU5ExFAnIiKGOhERMdSJiIihTkTEUCciIoY6EREx1ImIiKFORETBC/Xm5mZkZ2cjKioKUVFRiIuLg9FohN1un/S9TqcTlZWVSE1N9Xq/Xq8P6RcznZr6+vrE1032k52dLYuaxtan1+vF9yUlJaGyshJOpzPkK/BMaxr7PqGmUBsYGIDRaERSUtK0v2+73Q6j0Yi4uDiv70IK7TRVZWVliIiIkHWoNjQ0IDMzExEREYiIiMCSJUuQn5+P/v7+Ofl8xeDgoFuhUIj3DZguo9EIi8UCANBqtQAAh8MBh8MBpVKJI0eOIDk52e9KmJubK742ISFBfM5qteKDDz4ISaNMtya73Q6TyTTh7xTer9PpUFxcLPmaPMPPYDAAADQaDVQqFaxWK1wuFzQaDerq6qBSqWTRThO9Tyo1ZWdno7OzU/yuAaCzs1P8/v0tW19fH3Q6nViDZzsplUq0tbUhOjp6VssWzD8o0d/fj6KiInR0dAAARkZGgvZZwfwjGfn5+aiurgYAcd27evUqrl27hsjISFRXV2PDhg1BqWnhwoUYHR2dfahHRUUhLS0NRqPRa6U5ePAgysvLoVQqfYaz0+lEUlISXC4XCgsLkZeXJ5k97UxrmuhoZNOmTXA4HOjt7Z31xjVXNQ0MDGD16tUAALPZjPT0dLGe7Oxs2Gy2kO2kZlpTZWUlTCYTNBoNqqqqxPd51hTK9bGyshKbNm3yqmey79tzWxrbTqWlpbBYLNBqtairq5NcqJ86dQptbW1iEArkGuoRERHIysrCT37yE6jVavHx/fv345VXXkFkZCQ++ugjaYd6c3OzuBKNlZqaCpvNhqamJiQmJvrsLZWUlCAnJ0dSh08zrWmiDdVkMoU0LGZSU21tLQoKCnwGiRD4093BhbqmuLg4uFwunztXIRwBhKymiYZW1q9fP+GOytf65Rn4s+1QBDoAe3t7kZKSAgCIiYnBtm3bUFRUJOtQb2howObNm30+t27dOlitVrS3t4udpWCE+qzH1P1tVEIRAHDu3LlxgWCxWKBWqyUX6DOtaaJeekVFBZRKJbZu3SqrmkZHRwEA995777j3COHgcrlkU1NfXx9cLhe0Wq3PcFOpVMjIyIDL5RKHAaQiPj7e7/f9xhtvAAA2bdrktyYA6O7ulty2lpCQgJqaGthsNnz729+G3PkLdM/hmPfeey+oyzAns18WLlzo9W9h5SooKJBt442tyZ/6+nq4XC5kZGSEbJw20DWFYzsJhB3YpUuXJFWHcLLT85BeeNzhcECtVvvthT/yyCMAgHfeeUdSNa1evRpdXV0TBmE4CvaJ4KCGeldXFwDg/vvv93q8tbUVALBixQrZNYi/mvypqKgAgJDP5plJTatWrQIAnD17dtx7hJ6scKJR7u001p///GdJ1VNfXw8AeOaZZ7wev3z5ss+w97R48eKgD2nQ5IRtJi4uTp6h3tfXB5vNBrVaPW7sWTibHx0dPW46Y2pqKpqbmyXZKBPV5EtzczNcLhd0Ol1ITo7OtqbExETodDp0dnZCr9djYGBArGvHjh1QKpUoLCyUTU133XWXuP4JtYwl7MD8PT/XhGmKJpMJaWlp48bMP/30U3Fb8ue+++7z2u5o7vX29sJqtSImJibg4+ljzQ/WoeLu3bsBAAcOHPD7OuFkqUajgVarhdPphM1mg8FgwLvvvhuyWRWzqclTSUkJACAzM1OSK9pUahLawGKxoKWlxeu5t99+WxzrlUNN0dHR0Ol0sFgs0Ov142a/lJaWSiL4hGmNAqVS6XdCwSeffOI1bOSL1If9wt3Q0JB4pP6zn/0saJ8TtD9nZ7fbxel7ZrPZ7xx1AGhqakJtbS1aW1tRV1eH1tZWNDU1QalUwmKxSOZk1XRq8uwtCmOdU50lI8WaKisrveZ0a7VaaDQaAMDzzz8/pQvMpFTTnj17oNFoYLPZsHr1aqSmpiI7OxsPPPAALBaLeOQRyiOr5cuXe33XLpcLBQUFsruQiG7Ov3/sscdw7do11NTUBGWOukD4w9MB7ak3Nzdj7969ALznNfuzb9++cRteYmIidu7cCZPJhF/96ldTCtBgmm5NgsbGRgAQL9yRkqnW5G9Ot7DT0ul0yMrKQk9PT8h7g1OtSaVSoa6uDvX19XjjjTdgs9kAAGlpadi+ffuEM37milCHYGBgAFVVVbBYLLhw4YJ4Tmq6Jhp3p8BraGhAfn4+AKCmpmbOTggHrKduNBphMBigVqtx8uTJKYXfE0884fNx4eSbcLIrVGZSk3Ao39TUBABYu3atpFa0qdbkdDrFq2THBrrnztflcuG1116TVTupVCrk5eWhp6cHg4ODGBwcRFVVFRITE8VZL3fffbdk2iw6OhrFxcXQarWw2Wxe55wmOpntuQNmqM+t/Px8bN++HTExMXjrrbfmdIbPrHvqY69227Nnz6S9NqVSCZfL5fd1E83JnQszqclTd3e3eLm2VE6QTrcmYVbFRDUIgXLx4kVZtpMvQjhKcWbWmjVr0NnZKY6jA19fPDPRsIxw9CHVk/XhZGhoCJmZmbBarcjNzUVhYSEWLVo0p8sw61AvLS2d9qXV69atQ0tLC+x2u88TbcI4rTB2O9dmUpOnd999FwBCevOuQNckRYGuaWBgQLzvilwCMD4+HkqlEjabDU6n0+dO7f333wfw9Xx1Ch6TyQSr1Yr9+/eLJ+zn2qyGX+x2u3hfielsVKmpqQBuXobui3DmX7gqcC7NtCZPwtDLypUrJbGizaQmoQdos9n8Tu8TrtYMxV31AtFOYwkzfaR6TYFwFDF2aEi4YlSYyz72aMZisUCpVEpuKDDc9Pf3o7q6GsnJySEL9FmHuhC+W7Zsmdb70tPToVarYbFYxgV7c3MzTCZTyC6rn2lNnmEj3BlPKtP9ZlJTfHy8eG5Dr9ePm+VSW1srjrlv375dNu1UW1s7blaV0+mEXq9HS0sLtFrtlM+dBFptbS2am5vHDaU4nU4YjUbxKGLs8gk7oYqKCnH8XHhfaWkpXC4Xdu7cyamNQSasV08//XRIl2NWwy9Cz6GqqgonTpyY8LVj7xBXXV2NrKwsFBQUwGw2Q61Wi/PUhdumhuIQeDY1AcD58+cBwOs2wlLp4U23pldffVUcs16/fv24W7oCN2eahGLK5kxrGh0dRU5ODtRqtXjiUNhBaLVavPrqqyFrp9HRUfHWGZ5X6nreevfQoUPj3hcdHQ2z2QyDwYCMjIxx7aTT6cJmyE3KhIkdFRUV+OUvfznha4XZcZILdYEwLWw64uPj0dbWhqqqKjQ1NYn3wNbpdNDr9SEf05xJTUJPHbh5UktqpluTSqVCa2sramtrUVdXJ75faKfMzMyQz8Gfbk1arRYXL15EV1cXHA6H+NiWLVtC1kMXbNq0CSMjI+jq6vK6+Eir1SI1NRVPPPGE3952eno6Fi9ejJqaGvEiMY1GA71eH/K6vmmsVmtIP3/Wt94lom+GYP6RjLkUzFvvhrKmgN16l4iIpIOhTkTEUCciIoY6EREx1ImIiKFORPSNEbT7qRMR0dwT7qfOUCciCiMMdSIihjoRETHUiYiIoU5ERAx1IiKGOhERMdSJiEgC5vMrIKKp8LwPOWtiT52IiBjqREQ0HeLwC/9UFWtiTayJNcm/JvbUiYjCCEOdiIihTkREDHUiImKoExERQ52IiKFOREQMdSIiYqgTERFDnYiIGOpERAx1IiJiqBMR0dxxu90MdSKicKFQKBjqREThJmih7nA4kJ+fD41Gg4iICERERECj0aCsrAxDQ0Nh8wUODQ1hyZIliIiIQFlZmeyW3+FwiO3j70fOent7sW3bNrGNIiIisG7dOpw6dUo2NWRmZk7aRsJPb2+v7LafsrIyr5zYtm2b7OqYLPu2bduG/v7+Ofn8oP2N0h//+Mfo6OhAQkICkpOTAQAdHZOYqCYAAAjtSURBVB0oKipCY2MjGhsbsWjRItmH+vHjxzE8PCzb5f/0008BAJGRkVi5cmVY9Vj279+PV155BQCQkJAgrm9DQ0Ow2+3YsGGDLOpISEiY9DUdHR0AgMWLF8sq0DMzM2G1WhEZGYnk5GQMDQ3h5MmTOHnyJGpqarB582ZZrXP9/f3YtGkThoeHERMTE5Kaghbq69atw89//nOo1WqfjWgymXD48GHZ99LlXoNg8+bNYVMLAJSVleGVV15BQkICjhw5ggcffFC2tRQVFU34fE1NDTo6OpCbm+u1vUmdyWSC1WpFQkKCVyevoaEB27dvx/bt27Fq1SrZ1DQ0NCQGellZGbZv3y4+J9SUn5+Pxx9/PKgd2qANv+zevXtcYyxatAhHjhwRi5S7I0eOYHh4WDwSkbMlS5aETaA7HA4UFRUhJiYGjY2Nsg70qQTJSy+9hMjISBQWFspq2YUMsFgsXiG3efNm5ObmAgBOnz4tm3qampowPDyM3Nxcr0AXatq/fz+Gh4fR1NQU1OWY8xOlwgYm5yEL4TDrlVdeQW5uLtatWyfbOj744IOwC7ry8nIAwIsvvhgWQ3wTEYb/8vPzZVerkAG+euJCJ2NkZEQ29fz6178GAHz/+9/3+XxGRoa4EwurUBdOksbExMh6Y9qxY4cse0djyWmjmU4PMCYmRnbjsTPZloQhMyEwSLqEnZfVag2vUD9+/DgAYNu2bbJtnLKyMlitVrz00kth0xOMj48Pizp6e3vDZkhsOof7chpLFwht5GumS2NjIwDg29/+dli2ncPhCPjvnPN56v39/cjPz0dRURGysrKwe/du2YZGUVERkpOTx42bydnmzZu9pp7m5+cHZcULtvfee088fO/v7/eazrhkyRLZ1uXLf/zHfwAAdu3aJcvl379/PyIjI7FlyxZxfN3hcGDbtm2wWq3Izc3F6tWrZVOPMPrwq1/9ym92CIRZZ4E0J1eUes6v/c53voOGhgaUlZXh2LFjsj3c1ev1iIyMxM9//vOwCIaPPvoIycnJ4k9CQgKuXbuG6upqLF++XLYntG02GzZt2oSOjg6sXLlS7BVWV1dj7dq1czZnOFgaGhpw7do1JCcny7KXDtw8v/bWW28BALZv346IiAgsX74cJ0+eRFZWluxmYwk71+rqatTU1IwL9C1btszJcswP5i/3nF87NDQEq9WK3bt34w9/+AMKCwtlN3Tx/PPP49q1a6ipqZHthjSWrw1naGgIJpMJ1dXVsptWJhCC4dChQ17z04W6duzYga6uLtm22y9/+UsAwNNPPy3bGvr7+7Fjxw5xTvfSpUsBAOfPn8fJkyeh0WhkdUSvVqtRU1OD7du3Y/fu3XjppZewcuVKXL16VdwBAzevKQjm9QRB7al7XmjU1dWFixcvIjc3F9XV1cjMzJTVClhWVoaTJ08iNzc37E/ALVq0CIcPH0ZWVhaAr8+DyElMTIxXoAt1FRYWIjIyElarVba9dYfDgY6ODkRGRsp2XRTmdFutVpSVlcFms4lZceHCBeTm5qKoqEh2V2lv3rwZ7e3tyMrKwvDwsHhR2P79+3H06FFxokgwO0lzeqJUrVbj8OHDSE5OhtVqlc2hfUNDA4qKipCQkCD72S7TsXXrVgDBP1sfDFlZWT6PBBctWiT2mN5//31Ztoswz1nOnQvhGg9fc7o9d75FRUWyu63I6tWrcezYMYyMjGBkZAQ2mw27d+/GokWLYLVagz7zLyQ39BLmdX/88ceyOtS1Wq1Qq9Xj7rchXPFXVFSEiIgI2R2F+LNw4ULZLbNwr5qJ7lmj0WgAyHc6p3BOauPGjbJdt4SOgr8aFi1aJN624tKlS2GxPQknSoM9M2s+aFKT3XtDGDMTxgWncq8OORgdHZXdMj/88MMAbp4o9Ud4To7TOB0OB65du4bIyEjZ3LuGbhJmxQR7ZxySUBdOUN1zzz2yaIzJ7r1RVlaGoqIibNu2TbZTNX0xm80AgCeffFI2y/zggw8iJiYGJ0+exE9+8pNxY5dDQ0PiOOeqVatk1ybCZfNyn4cfGRkJAGhra/O5cxoaGsL58+cBAAsWLJD9ttTf34/q6mrExMQEfWcclOGXmpoaNDQ0jBsLGxoaQn5+vnj3xnA/4SgH27ZtGzdv27OdYmJiZHe14osvvggA0Ol0XrUJN5QbHh7GCy+8IMsLx86cOQMAePTRR2W93j333HMAbk7/G3sy1OFwiO2UnJwsq3v3bNu2bVzunTp1Cps2bQIAVFVVBX0ZgtJTHxkZEXusnj0KoYck3DmPQk+4JajnrWmFdoqJicEbb7whu/DbvHkzenp6xLn2wjp4/vx5MSgmO/qSKqFt4uLiZL3erV69Wpz+V1RUhMOHD2PlypXi1GchJ44ePSrL7UlY54Sh2cjISNTU1MzJxVRBCfWMjAyMjIygo6NDXAmFgH/yySeRkZER9jdakov9+/ejsbHRa4ZLOLTT4cOHkZSUhIqKCq/OxM6dO2V7hOhwOMSbYMnpSsuJdr73338/jh07hoaGBq920ul0slz/hO3Js2OUm5uLXbt2zdm1HorBwUG3QqHAHXfcERYh9fnnn4v/Hw5jcayJNbEm1jSVmhYuXIjR0VH+jVIionDCUCciYqgTERFDnYiIGOpERMRQJyJiqBMREUOdiIgY6kRExFAnIiKGOhERQ52IiOQT6gqFAm63G263m98GEZFMffXVVzdD/W9/+xu/DSIimfv73/+Ov//975j3l7/8BW63G1999RV760REMvXll1/iyy+/hOLdd99133vvvZg3bx5DnYhIRjyHzxUKBYaGhjD/q6++wuDgIO6++24oFArMnz8ft912G+bNm945VOGXjv3/uXr/dH7PZL9/qp8/3eUUXj/2v5PV4NmAvn6Pv+WZ7N/TfV2wvqu5/PypvH626+9k37Xnxji2nae6jFNZHs91JpC1yn37D5VAL8+NGzfwxRdf3OydKxRwOp2YN28e5t9yyy344osvcOXKFahUKkRERODvf/87d4FERBJ348YN/O///i/++te/4pZbbsH8+fPx/wApXFuHkGffrgAAAABJRU5ErkJggg==;" vertex="1" parent="1">
          <mxGeometry x="110" y="200" width="196.32" height="220" as="geometry" />
        </mxCell>
        <mxCell id="xs7kMqRLCH-QeiT2XTBK-12" value="" style="rounded=1;whiteSpace=wrap;html=1;fillColor=none;strokeColor=#FFFFFF;" vertex="1" parent="1">
          <mxGeometry x="330" y="200" width="360" height="230" as="geometry" />
        </mxCell>
        <mxCell id="xs7kMqRLCH-QeiT2XTBK-13" value="&lt;font style=&quot;font-size: 17px;&quot; color=&quot;#ffffff&quot;&gt;Doctores disponibles en el dÃ­a seleccionado&lt;/font&gt;" style="text;html=1;align=center;verticalAlign=middle;whiteSpace=wrap;rounded=0;" vertex="1" parent="1">
          <mxGeometry x="340" y="220" width="340" height="30" as="geometry" />
        </mxCell>
        <mxCell id="xs7kMqRLCH-QeiT2XTBK-14" value="&lt;font color=&quot;#ffffff&quot; style=&quot;font-size: 15px;&quot;&gt;Nombre:&lt;/font&gt;&lt;div&gt;&lt;font color=&quot;#ffffff&quot; style=&quot;font-size: 15px;&quot;&gt;Apellido:&lt;/font&gt;&lt;/div&gt;&lt;div&gt;&lt;font color=&quot;#ffffff&quot; style=&quot;font-size: 15px;&quot;&gt;Hora disponible:&lt;/font&gt;&lt;/div&gt;" style="text;html=1;align=left;verticalAlign=middle;whiteSpace=wrap;rounded=0;" vertex="1" parent="1">
          <mxGeometry x="350" y="265" width="200" height="90" as="geometry" />
        </mxCell>
        <mxCell id="xs7kMqRLCH-QeiT2XTBK-15" value="" style="rounded=1;whiteSpace=wrap;html=1;fillColor=#99CCFF;strokeColor=#001DBC;fontColor=#ffffff;" vertex="1" parent="1">
          <mxGeometry x="354" y="355" width="56" height="25" as="geometry" />
        </mxCell>
        <mxCell id="xs7kMqRLCH-QeiT2XTBK-16" value="&lt;font color=&quot;#ffffff&quot;&gt;Volver&lt;/font&gt;" style="text;html=1;align=center;verticalAlign=middle;whiteSpace=wrap;rounded=0;" vertex="1" parent="1">
          <mxGeometry x="354" y="352.5" width="60" height="30" as="geometry" />
        </mxCell>
        <mxCell id="xs7kMqRLCH-QeiT2XTBK-17" value="" style="ellipse;whiteSpace=wrap;html=1;aspect=fixed;fillColor=none;strokeColor=#FFFFFF;" vertex="1" parent="1">
          <mxGeometry x="680" y="55" width="20" height="20" as="geometry" />
        </mxCell>
        <mxCell id="xs7kMqRLCH-QeiT2XTBK-18" value="" style="ellipse;whiteSpace=wrap;html=1;aspect=fixed;fillColor=none;strokeColor=#FFFFFF;" vertex="1" parent="1">
          <mxGeometry x="710" y="55" width="20" height="20" as="geometry" />
        </mxCell>
        <mxCell id="xs7kMqRLCH-QeiT2XTBK-19" value="" style="ellipse;whiteSpace=wrap;html=1;aspect=fixed;fillColor=none;strokeColor=#FFFFFF;" vertex="1" parent="1">
          <mxGeometry x="740" y="55" width="20" height="20" as="geometry" />
        </mxCell>
      </root>
    </mxGraphModel>
  </diagram>
</mxfile>
